<svg xmlns="http://www.w3.org/2000/svg" viewBox="0 0 72 28"><defs><style>.a{fill:#82368c;}.b{fill:#951b81;}.c{fill:#a3195b;}.d{fill:#be1622;}.e{fill:#e6007e;}</style></defs><title>tooloop-logo</title><polygon class="a" points="24.17 21 12.09 28 0 21 0 7 12.09 0 24.17 7 24.17 21"/><polygon class="b" points="36.31 21 24.22 28 12.13 21 12.13 7 24.22 0 36.31 7 36.31 21"/><polygon class="c" points="48.44 21 36.35 28 24.27 21 24.27 7 36.35 0 48.44 7 48.44 21"/><polygon class="d" points="59.08 21 46.99 28 34.91 21 34.91 7 46.99 0 59.08 7 59.08 21"/><polygon class="e" points="71.21 21 59.13 28 47.04 21 47.04 7 59.13 0 71.21 7 71.21 21"/></svg>