<svg xmlns="http://www.w3.org/2000/svg" xmlns:xlink="http://www.w3.org/1999/xlink" viewBox="0 0 85 28"><defs><style>.a{fill:none;stroke-miterlimit:10;stroke-width:0.5px;stroke:url(#a);}</style><linearGradient id="a" y1="14" x2="84.92" y2="14" gradientUnits="userSpaceOnUse"><stop offset="0" stop-color="#e6332a"/><stop offset="1" stop-color="#e71d73"/></linearGradient></defs><title>tooloop-signet</title><path class="a" d="M48.36,20.36a1.72,1.72,0,0,1-1.08-.45L44.39,17a1.77,1.77,0,0,1-.45-1.09v-4a1.76,1.76,0,0,1,.46-1.08l2.87-2.76a1.82,1.82,0,0,1,1.09-.44h4a1.77,1.77,0,0,1,1.09.45l2.75,2.74a1.77,1.77,0,0,1,.45,1.09v4a1.87,1.87,0,0,1-.44,1.1l-2.77,2.87a1.72,1.72,0,0,1-1.08.45ZM37.32,0V15.94A1.83,1.83,0,0,0,37.77,17l2.89,2.88a1.77,1.77,0,0,0,1.09.45H46.4M2.71,0V15.94A1.77,1.77,0,0,0,3.16,17L6,19.91a1.77,1.77,0,0,0,1.09.45h4.65M5.29,7.64H0M66.38,20.36a1.72,1.72,0,0,0,1.08-.45L70.23,17a1.87,1.87,0,0,0,.44-1.1v-4a1.77,1.77,0,0,0-.45-1.09L67.47,8.09a1.77,1.77,0,0,0-1.09-.45h-4a1.82,1.82,0,0,0-1.09.44L58.4,10.84a1.76,1.76,0,0,0-.46,1.08v4A1.77,1.77,0,0,0,58.39,17l2.89,2.88a1.72,1.72,0,0,0,1.08.45Zm-48.61,0a1.7,1.7,0,0,0,1.07-.45L21.61,17a1.87,1.87,0,0,0,.44-1.1v-4a1.77,1.77,0,0,0-.45-1.09L18.85,8.09a1.72,1.72,0,0,0-1.08-.45h-4a1.85,1.85,0,0,0-1.1.44L9.78,10.84a1.76,1.76,0,0,0-.46,1.08v4A1.83,1.83,0,0,0,9.77,17l2.89,2.88a1.77,1.77,0,0,0,1.09.45Zm14,0a1.7,1.7,0,0,0,1.07-.45L35.61,17a1.87,1.87,0,0,0,.44-1.1v-4a1.77,1.77,0,0,0-.45-1.09L32.85,8.09a1.72,1.72,0,0,0-1.08-.45h-4a1.85,1.85,0,0,0-1.1.44l-2.87,2.76a1.76,1.76,0,0,0-.46,1.08v4A1.83,1.83,0,0,0,23.77,17l2.89,2.88a1.77,1.77,0,0,0,1.09.45Zm44,0h4.65a1.72,1.72,0,0,0,1.08-.45L84.23,17a1.87,1.87,0,0,0,.44-1.1v-4a1.77,1.77,0,0,0-.45-1.09L81.47,8.09a1.77,1.77,0,0,0-1.09-.45h-4a1.82,1.82,0,0,0-1.09.44L72.4,10.84a1.76,1.76,0,0,0-.46,1.08V28"/></svg>